<svg xmlns="http://www.w3.org/2000/svg" width="81.122" height="61" viewBox="0 0 81.122 61">
  <path id="Path_1327" data-name="Path 1327" d="M67.569,63.5a13.551,13.551,0,0,0-8.385,24.2L44.977,98.116c-.246.181-.447.334-.615.464l-.117.09-.116-.089c-.168-.13-.368-.285-.613-.464L16.062,77.984V77.3a2.893,2.893,0,0,1,2.89-2.891H50.323a1.188,1.188,0,1,0,0-2.377H18.951A5.273,5.273,0,0,0,13.685,77.3v3.425H11.128a5.2,5.2,0,0,0-5.195,5.2v5.155H1.287a1.188,1.188,0,0,0,0,2.377H5.933v7.762H1.188a1.188,1.188,0,0,0,0,2.377H5.933v9.168H1.188a1.188,1.188,0,1,0,0,2.377H5.933V119.3a5.2,5.2,0,0,0,5.195,5.2h14.96a1.188,1.188,0,1,0,0-2.377H11.41l9.728-6.28h36.2l9.637,6.219a2.812,2.812,0,0,1-.582.061H31.576a1.188,1.188,0,0,0,0,2.377H66.393a5.2,5.2,0,0,0,5.195-5.2v-3.6a5.28,5.28,0,0,0,4.06-5.13V87.933A13.551,13.551,0,0,0,67.569,63.5ZM16.062,80.932l5.116,3.753L36.034,95.578l-19.972,12.9Zm-7.752,5A2.824,2.824,0,0,1,11.128,83.1h2.557v18.117H8.31Zm.536,35.023a2.808,2.808,0,0,1-.536-1.65V103.6h5.375v6.974a5.28,5.28,0,0,0,3.53,4.976ZM69.21,119.3a2.806,2.806,0,0,1-.271,1.2l-7.217-4.657H69.21Zm1.166-5.833H18.951a2.894,2.894,0,0,1-2.806-2.218L38.085,97.082l4.025,2.953c.227.165.412.309.567.428a2.689,2.689,0,0,0,1.567.738,2.7,2.7,0,0,0,1.567-.737c.155-.12.341-.263.57-.429l4.478-3.286,22.346,14.428a2.9,2.9,0,0,1-2.829,2.29Zm2.894-5.077L52.911,95.245,61.32,89.08a13.516,13.516,0,0,0,11.95.268Zm-5.7-20.156a11.179,11.179,0,1,1,11.176-11.18A11.092,11.092,0,0,1,67.569,88.234Z" transform="translate(0 -63.5)"/>
</svg>
