<?xml version="1.0" encoding="UTF-8"?>
<!DOCTYPE svg PUBLIC "-//W3C//DTD SVG 1.1//EN" "http://www.w3.org/Graphics/SVG/1.1/DTD/svg11.dtd">
<svg xmlns="http://www.w3.org/2000/svg" version="1.1" width="512px" height="512px" style="shape-rendering:geometricPrecision; text-rendering:geometricPrecision; image-rendering:optimizeQuality; fill-rule:evenodd; clip-rule:evenodd" xmlns:xlink="http://www.w3.org/1999/xlink">
<g><path style="opacity:0.92" fill="#707070" d="M 447.5,-0.5 C 454.833,-0.5 462.167,-0.5 469.5,-0.5C 472.449,3.62817 473.282,8.29484 472,13.5C 469.667,29.5 467.333,45.5 465,61.5C 463.171,67.1582 459.337,68.9916 453.5,67C 452.667,66.1667 451.833,65.3333 451,64.5C 451.625,52.1272 452.625,39.7939 454,27.5C 323.949,142.663 176.115,228.829 10.5,286C 6.25856,287.188 2.59189,286.355 -0.5,283.5C -0.5,280.833 -0.5,278.167 -0.5,275.5C 1.01027,274.164 2.67694,272.997 4.5,272C 168.73,215.832 315.064,130.499 443.5,16C 431.5,16 419.5,16 407.5,16C 402.584,12.134 402.251,7.80069 406.5,3C 420.284,1.60863 433.951,0.441958 447.5,-0.5 Z"/></g>
<g><path style="opacity:0.953" fill="#707070" d="M 511.5,129.5 C 511.5,255.833 511.5,382.167 511.5,508.5C 510.167,509.167 509.167,510.167 508.5,511.5C 483.833,511.5 459.167,511.5 434.5,511.5C 432.864,510.251 431.697,508.584 431,506.5C 430.333,381.5 430.333,256.5 431,131.5C 431.398,128.768 432.898,126.935 435.5,126C 459.5,125.333 483.5,125.333 507.5,126C 509.35,126.69 510.684,127.856 511.5,129.5 Z M 445.5,140.5 C 462.833,140.5 480.167,140.5 497.5,140.5C 497.5,259.5 497.5,378.5 497.5,497.5C 480.167,497.5 462.833,497.5 445.5,497.5C 445.5,378.5 445.5,259.5 445.5,140.5 Z"/></g>
<g><path style="opacity:0.927" fill="#707070" d="M 364.5,511.5 C 339.833,511.5 315.167,511.5 290.5,511.5C 289.164,509.99 287.997,508.323 287,506.5C 286.333,406.5 286.333,306.5 287,206.5C 287.833,203.667 289.667,201.833 292.5,201C 315.833,200.333 339.167,200.333 362.5,201C 365.773,201.94 367.606,204.107 368,207.5C 368.667,306.833 368.667,406.167 368,505.5C 367.436,507.887 366.27,509.887 364.5,511.5 Z M 301.5,215.5 C 318.833,215.5 336.167,215.5 353.5,215.5C 353.5,309.5 353.5,403.5 353.5,497.5C 336.167,497.5 318.833,497.5 301.5,497.5C 301.5,403.5 301.5,309.5 301.5,215.5 Z"/></g>
<g><path style="opacity:0.928" fill="#707070" d="M 220.5,511.5 C 195.833,511.5 171.167,511.5 146.5,511.5C 144.73,509.887 143.564,507.887 143,505.5C 142.333,426.5 142.333,347.5 143,268.5C 142.937,265.233 144.437,263.066 147.5,262C 171.5,261.333 195.5,261.333 219.5,262C 222.102,262.935 223.602,264.768 224,267.5C 224.667,347.167 224.667,426.833 224,506.5C 223.003,508.323 221.836,509.99 220.5,511.5 Z M 157.5,276.5 C 174.833,276.5 192.167,276.5 209.5,276.5C 209.5,350.167 209.5,423.833 209.5,497.5C 192.167,497.5 174.833,497.5 157.5,497.5C 157.5,423.833 157.5,350.167 157.5,276.5 Z"/></g>
<g><path style="opacity:0.954" fill="#707070" d="M 76.5,511.5 C 51.8333,511.5 27.1667,511.5 2.5,511.5C 1.83333,510.167 0.833333,509.167 -0.5,508.5C -0.5,457.167 -0.5,405.833 -0.5,354.5C 0.626561,353.878 1.62656,353.045 2.5,352C 27.1667,351.333 51.8333,351.333 76.5,352C 78.0488,353.214 79.2155,354.714 80,356.5C 80.6667,406.5 80.6667,456.5 80,506.5C 79.3028,508.584 78.1361,510.251 76.5,511.5 Z M 13.5,366.5 C 30.8333,366.5 48.1667,366.5 65.5,366.5C 65.5,410.167 65.5,453.833 65.5,497.5C 48.1667,497.5 30.8333,497.5 13.5,497.5C 13.5,453.833 13.5,410.167 13.5,366.5 Z"/></g>
</svg>
