<?xml version="1.0" encoding="UTF-8"?>
<!DOCTYPE svg PUBLIC "-//W3C//DTD SVG 1.1//EN" "http://www.w3.org/Graphics/SVG/1.1/DTD/svg11.dtd">
<svg xmlns="http://www.w3.org/2000/svg" version="1.1" width="512px" height="512px" style="shape-rendering:geometricPrecision; text-rendering:geometricPrecision; image-rendering:optimizeQuality; fill-rule:evenodd; clip-rule:evenodd" xmlns:xlink="http://www.w3.org/1999/xlink">
<g><path style="opacity:0.963" fill="#000000" d="M 237.5,-0.5 C 249.5,-0.5 261.5,-0.5 273.5,-0.5C 348.966,12.1245 396.799,55.4579 417,129.5C 426.304,174.973 418.638,217.307 394,256.5C 376.636,283.032 359.47,309.699 342.5,336.5C 369.045,341.578 395.045,348.744 420.5,358C 440.753,365.529 457.92,377.362 472,393.5C 484.408,414.763 483.074,435.096 468,454.5C 449.636,471.94 428.136,484.106 403.5,491C 365.846,502.385 327.512,509.219 288.5,511.5C 266.5,511.5 244.5,511.5 222.5,511.5C 186.682,509.475 151.348,503.642 116.5,494C 95.8919,488.026 76.5585,479.36 58.5,468C 37.9374,454.708 28.7708,435.875 31,411.5C 34.1605,400.343 39.9938,390.843 48.5,383C 65.9865,368.754 85.6532,358.421 107.5,352C 127.669,346.041 148.003,340.875 168.5,336.5C 151.165,308.493 133.332,280.827 115,253.5C 86.8437,204.45 82.8437,153.45 103,100.5C 129.773,42.705 174.606,9.03833 237.5,-0.5 Z M 240.5,30.5 C 298.612,27.3017 342.779,50.3017 373,99.5C 395.57,144.84 394.903,189.84 371,234.5C 332.303,294.366 293.803,354.366 255.5,414.5C 217.197,354.366 178.697,294.366 140,234.5C 116.097,189.837 115.43,144.837 138,99.5C 161.148,60.1732 195.314,37.1732 240.5,30.5 Z M 246.5,121.5 C 273.542,119.067 291.042,130.733 299,156.5C 301.92,183.564 290.42,201.064 264.5,209C 237.436,211.92 219.936,200.42 212,174.5C 209.287,147.411 220.787,129.744 246.5,121.5 Z M 181.5,366.5 C 184.365,366.055 186.865,366.722 189,368.5C 207.544,398.426 226.711,427.926 246.5,457C 254.571,461.097 261.738,459.93 268,453.5C 286.25,425.336 304.25,397.002 322,368.5C 323.126,367.056 324.626,366.39 326.5,366.5C 355.766,370.066 384.099,377.233 411.5,388C 424.82,393.237 436.32,401.07 446,411.5C 449.173,416.023 450.173,421.023 449,426.5C 445.552,431.948 441.385,436.782 436.5,441C 417.743,453.208 397.41,461.874 375.5,467C 325.504,478.889 274.838,483.222 223.5,480C 182.62,478.465 142.953,470.798 104.5,457C 90.9657,451.989 78.7991,444.823 68,435.5C 65.7519,432.672 63.7519,429.672 62,426.5C 61.2327,422.406 61.566,418.406 63,414.5C 72.8771,402.632 85.0438,393.799 99.5,388C 126.126,377.678 153.459,370.512 181.5,366.5 Z"/></g>
<g><path style="opacity:0.964" fill="#000000" d="M 243.5,90.5 C 280.999,87.1595 308.166,102.16 325,135.5C 337.826,172.675 328.993,203.508 298.5,228C 275.331,241.926 250.998,244.26 225.5,235C 190.155,216.812 175.655,187.978 182,148.5C 191.08,116.917 211.58,97.5835 243.5,90.5 Z M 246.5,121.5 C 220.787,129.744 209.287,147.411 212,174.5C 219.936,200.42 237.436,211.92 264.5,209C 290.42,201.064 301.92,183.564 299,156.5C 291.042,130.733 273.542,119.067 246.5,121.5 Z"/></g>
</svg>
