<svg xmlns="http://www.w3.org/2000/svg" width="15" height="15" viewBox="0 0 15 15">
  <path id="Path_216" data-name="Path 216" d="M339.669,278.954h-5a1.874,1.874,0,0,0-1.875,1.875v13.125h8.75V280.829A1.875,1.875,0,0,0,339.669,278.954Zm-3.125,11.875h-1.875v-1.25h1.875Zm0-2.5h-1.875v-1.25h1.875Zm0-2.5h-1.875v-1.25h1.875Zm0-2.5h-1.875v-1.25h1.875Zm3.125,7.5h-1.875v-1.25h1.875Zm0-2.5h-1.875v-1.25h1.875Zm0-2.5h-1.875v-1.25h1.875Zm0-2.5h-1.875v-1.25h1.875Zm6.25-1.25h-3.125v11.875h5v-10A1.875,1.875,0,0,0,345.919,282.079Zm0,8.75h-1.25v-1.25h1.25Zm0-2.5h-1.25v-1.25h1.25Zm0-2.5h-1.25v-1.25h1.25Z" transform="translate(-332.794 -278.954)" fill="#707070"/>
</svg>
