<svg xmlns="http://www.w3.org/2000/svg" width="13.334" height="20" viewBox="0 0 13.334 20">
  <path id="Path_221" data-name="Path 221" d="M341.8,325.24h-4.166a4.589,4.589,0,0,0-4.584,4.583v10.833a4.59,4.59,0,0,0,4.584,4.584H341.8a4.589,4.589,0,0,0,4.584-4.584V329.823A4.588,4.588,0,0,0,341.8,325.24Zm-4.166,2.5H341.8a2.083,2.083,0,0,1,2.084,2.083V340.24h-8.334V329.823A2.083,2.083,0,0,1,337.639,327.74Zm2.083,15.833h0a.833.833,0,0,1-.833-.833h0a.833.833,0,0,1,.833-.834h0a.833.833,0,0,1,.833.834h0A.833.833,0,0,1,339.722,343.573Z" transform="translate(-333.055 -325.24)" fill="#707070"/>
</svg>
