<svg xmlns="http://www.w3.org/2000/svg" width="15" height="15" viewBox="0 0 15 15">
  <g id="Group_91" data-name="Group 91" transform="translate(-303.794 -243.453)">
    <path id="Path_142" data-name="Path 142" d="M305.044,243.453h6.875a1.25,1.25,0,0,1,1.25,1.25v4.375a1.25,1.25,0,0,1-1.25,1.25h-6.875a1.249,1.249,0,0,1-1.25-1.25V244.7A1.25,1.25,0,0,1,305.044,243.453Z" fill="#707070"/>
    <path id="Path_143" data-name="Path 143" d="M315.669,243.453h1.875a1.25,1.25,0,0,1,1.25,1.25v4.375a1.25,1.25,0,0,1-1.25,1.25h-1.875a1.249,1.249,0,0,1-1.25-1.25V244.7A1.25,1.25,0,0,1,315.669,243.453Z" fill="#707070"/>
    <path id="Path_144" data-name="Path 144" d="M305.044,251.578h1.875a1.25,1.25,0,0,1,1.25,1.25V257.2a1.25,1.25,0,0,1-1.25,1.25h-1.875a1.249,1.249,0,0,1-1.25-1.25v-4.375A1.25,1.25,0,0,1,305.044,251.578Z" fill="#707070"/>
    <path id="Path_145" data-name="Path 145" d="M310.669,251.578h6.875a1.25,1.25,0,0,1,1.25,1.25V257.2a1.25,1.25,0,0,1-1.25,1.25h-6.875a1.249,1.249,0,0,1-1.25-1.25v-4.375A1.25,1.25,0,0,1,310.669,251.578Z" fill="#707070"/>
  </g>
</svg>
