<?xml version="1.0" encoding="UTF-8"?>
<!DOCTYPE svg PUBLIC "-//W3C//DTD SVG 1.1//EN" "http://www.w3.org/Graphics/SVG/1.1/DTD/svg11.dtd">
<svg xmlns="http://www.w3.org/2000/svg" version="1.1" width="512px" height="512px" style="shape-rendering:geometricPrecision; text-rendering:geometricPrecision; image-rendering:optimizeQuality; fill-rule:evenodd; clip-rule:evenodd" xmlns:xlink="http://www.w3.org/1999/xlink">
<g><path style="opacity:0.948" fill="#000000" d="M 176.5,-0.5 C 186.5,-0.5 196.5,-0.5 206.5,-0.5C 258.556,10.1961 289.056,41.8628 298,94.5C 300.658,148.135 277.491,185.635 228.5,207C 180.466,221.427 139.966,209.927 107,172.5C 85.0761,142.872 79.0761,110.206 89,74.5C 103.899,32.7619 133.066,7.76189 176.5,-0.5 Z M 181.5,21.5 C 221.58,19.4469 250.747,36.1136 269,71.5C 283.859,111.899 275.026,146.066 242.5,174C 205.962,197.763 170.295,196.43 135.5,170C 108.473,143.727 100.64,112.56 112,76.5C 125.263,45.6222 148.43,27.2889 181.5,21.5 Z"/></g>
<g><path style="opacity:0.949" fill="#000000" d="M 385.5,511.5 C 369.833,511.5 354.167,511.5 338.5,511.5C 331.942,509.445 327.442,505.112 325,498.5C 323.263,487.269 321.43,476.102 319.5,465C 313.411,462.207 307.578,459.041 302,455.5C 291.407,460.967 280.407,465.3 269,468.5C 262.301,467.983 256.634,465.317 252,460.5C 244.478,448.123 237.478,435.457 231,422.5C 228.932,413.71 231.099,406.21 237.5,400C 245.089,394.622 252.589,389.122 260,383.5C 260.667,376.167 260.667,368.833 260,361.5C 250.763,355.599 242.096,348.932 234,341.5C 230.752,335.548 229.752,329.215 231,322.5C 238.036,308.252 246.202,294.752 255.5,282C 260.933,278.191 266.933,276.857 273.5,278C 283.399,281.616 293.066,285.783 302.5,290.5C 308.652,286.837 314.652,283.003 320.5,279C 321.765,269.19 322.931,259.356 324,249.5C 326.687,240.814 332.521,235.647 341.5,234C 355.167,233.333 368.833,233.333 382.5,234C 391.03,235.526 396.863,240.359 400,248.5C 401.172,259.23 402.672,269.897 404.5,280.5C 410.66,283.077 416.327,286.41 421.5,290.5C 431.39,286.038 441.39,281.871 451.5,278C 461.885,276.609 469.718,280.443 475,289.5C 481,300.167 487,310.833 493,321.5C 495.119,329.452 493.786,336.785 489,343.5C 480.974,349.693 472.807,355.693 464.5,361.5C 463.335,368.811 463.169,376.144 464,383.5C 472.847,389.925 481.514,396.591 490,403.5C 494.757,410.844 495.424,418.511 492,426.5C 485.667,437.5 479.333,448.5 473,459.5C 466.362,467.13 458.195,469.63 448.5,467C 439.608,463.304 430.775,459.471 422,455.5C 416.422,459.041 410.589,462.207 404.5,465C 402.707,475.745 401.207,486.578 400,497.5C 397.226,504.443 392.393,509.11 385.5,511.5 Z M 345.5,255.5 C 356.5,255.5 367.5,255.5 378.5,255.5C 379.732,266.816 380.898,278.149 382,289.5C 382.7,293.066 384.533,295.9 387.5,298C 397.083,301.457 405.75,306.457 413.5,313C 418.956,315.099 424.289,314.766 429.5,312C 437.833,308.167 446.167,304.333 454.5,300.5C 460.366,309.869 466.032,319.369 471.5,329C 462.5,335.333 453.5,341.667 444.5,348C 442.951,349.214 441.785,350.714 441,352.5C 441.667,366.167 441.667,379.833 441,393.5C 441.785,395.286 442.951,396.786 444.5,398C 453.5,404.333 462.5,410.667 471.5,417C 465.959,426.583 460.293,436.083 454.5,445.5C 443.282,439.807 431.782,434.807 420,430.5C 409.013,437.455 397.513,443.621 385.5,449C 383.438,451.068 382.272,453.568 382,456.5C 380.964,467.529 379.797,478.529 378.5,489.5C 367.5,489.5 356.5,489.5 345.5,489.5C 344.466,477.827 343.299,466.16 342,454.5C 341.208,452.413 340.041,450.579 338.5,449C 328.044,444.608 318.377,438.941 309.5,432C 307.782,431.654 306.115,431.154 304.5,430.5C 292.586,434.54 281.086,439.54 270,445.5C 264.292,435.916 258.459,426.416 252.5,417C 262.599,410.2 272.433,403.034 282,395.5C 283.404,393.361 284.237,391.028 284.5,388.5C 281.833,378.167 281.833,367.833 284.5,357.5C 284.308,355.423 283.808,353.423 283,351.5C 273.131,343.622 263.298,335.789 253.5,328C 258.376,318.406 263.876,309.24 270,300.5C 281.04,306.024 292.373,310.691 304,314.5C 306.3,314.506 308.466,314.006 310.5,313C 319.623,306.02 329.456,300.186 340,295.5C 340.862,293.913 341.529,292.246 342,290.5C 343.431,278.854 344.598,267.187 345.5,255.5 Z M 355.5,341.5 C 374.585,340.103 387.085,348.436 393,366.5C 394.692,386.47 385.859,398.97 366.5,404C 347.118,404.622 335.285,395.455 331,376.5C 330.809,358.855 338.975,347.189 355.5,341.5 Z"/></g>
<g><path style="opacity:0.962" fill="#000000" d="M -0.5,441.5 C -0.5,406.833 -0.5,372.167 -0.5,337.5C 8.98693,292.513 36.3203,265.347 81.5,256C 130.5,255.333 179.5,255.333 228.5,256C 234.471,260.197 235.971,265.697 233,272.5C 231.269,274.617 229.102,276.117 226.5,277C 179.5,277.333 132.5,277.667 85.5,278C 52.4108,284.423 31.5774,303.923 23,336.5C 21.5401,366.125 21.0401,395.791 21.5,425.5C 75.501,425.333 129.501,425.5 183.5,426C 191.069,428.584 193.569,433.751 191,441.5C 190.215,443.286 189.049,444.786 187.5,446C 126.916,447.659 66.249,447.992 5.5,447C 2.97739,445.64 0.977392,443.807 -0.5,441.5 Z"/></g>
<g><path style="opacity:0.948" fill="#000000" d="M 351.5,319.5 C 384.726,316.343 405.892,330.677 415,362.5C 418.425,394.033 405.258,414.866 375.5,425C 343.038,430.026 321.205,417.192 310,386.5C 305.106,361.494 312.94,341.661 333.5,327C 339.328,323.788 345.328,321.288 351.5,319.5 Z M 355.5,341.5 C 338.975,347.189 330.809,358.855 331,376.5C 335.285,395.455 347.118,404.622 366.5,404C 385.859,398.97 394.692,386.47 393,366.5C 387.085,348.436 374.585,340.103 355.5,341.5 Z"/></g>
</svg>
