<svg xmlns="http://www.w3.org/2000/svg" width="15" height="17.485" viewBox="0 0 15 17.485">
  <g id="b75708d097f2188dff6617b0f00f7c43" transform="translate(-970.499 -423.67)">
    <path id="Path_1070" data-name="Path 1070" d="M973.366,429.435h9.266v7.551a.811.811,0,0,1-.812.812h-.928v2.3a1.041,1.041,0,1,1-2.082,0v-2.3h-1.621v2.3a1.042,1.042,0,1,1-2.083,0v-2.3h-.927a.813.813,0,0,1-.813-.812v-7.551Zm-1.816-.061a1.06,1.06,0,0,0-1.051,1.067v4.173a1.052,1.052,0,1,0,2.1,0v-4.173A1.06,1.06,0,0,0,971.55,429.374Zm11.082-.7h-9.266a3.988,3.988,0,0,1,2.2-3.114l-.881-1.294a.382.382,0,1,1,.632-.43l.96,1.411a5.237,5.237,0,0,1,3.437,0l.96-1.411a.382.382,0,0,1,.632.43l-.88,1.294A3.982,3.982,0,0,1,982.632,428.675Zm-6.075-1.794a.513.513,0,1,0-.512.512A.513.513,0,0,0,976.557,426.881Zm3.974,0a.513.513,0,1,0-.513.512A.513.513,0,0,0,980.531,426.881Zm3.918,2.491a1.061,1.061,0,0,0-1.052,1.069v4.174a1.051,1.051,0,1,0,2.1,0v-4.174A1.059,1.059,0,0,0,984.449,429.372Z" fill="#707070"/>
  </g>
</svg>
