<svg xmlns="http://www.w3.org/2000/svg" width="15" height="15" viewBox="0 0 15 15">
  <path id="Path_1258" data-name="Path 1258" d="M668.312,191.143H668v-.313a.938.938,0,0,0-.938-.937h0a.938.938,0,0,0-.937.937v.313h-3.75v-.313a.938.938,0,0,0-.938-.937h0a.938.938,0,0,0-.937.937v.313h-.313a3.437,3.437,0,0,0-3.437,3.437v6.875a3.437,3.437,0,0,0,3.437,3.438h8.125a3.438,3.438,0,0,0,3.438-3.438V194.58A3.437,3.437,0,0,0,668.312,191.143Zm0,11.875h-8.125a1.563,1.563,0,0,1-1.562-1.563v-5.312h11.25v5.312A1.563,1.563,0,0,1,668.312,203.018Z" transform="translate(-656.75 -189.893)" fill="#707070"/>
</svg>
