<svg xmlns="http://www.w3.org/2000/svg" width="19.729" height="19.729" viewBox="0 0 19.729 19.729">
  <g id="Group_549" data-name="Group 549" transform="translate(-1541.59 -786.806)">
    <path id="Path_227" data-name="Path 227" d="M1551.454,805.534a8.858,8.858,0,1,0-7.94-4.918,1.448,1.448,0,0,1,.119,1.018l-.528,1.973a1.152,1.152,0,0,0,1.411,1.411l1.973-.528a1.449,1.449,0,0,1,1.018.119A8.825,8.825,0,0,0,1551.454,805.534Z" transform="translate(0 0)" fill="none" stroke="#fff" stroke-width="2" style="isolation: isolate"/>
    <path id="Path_228" data-name="Path 228" d="M1557.387,803.49a.886.886,0,1,0,.886-.886A.886.886,0,0,0,1557.387,803.49Z" transform="translate(-6.819 -6.819)" fill="#fff"/>
    <path id="Path_229" data-name="Path 229" d="M1550.81,803.49a.887.887,0,1,0,.886-.886A.886.886,0,0,0,1550.81,803.49Z" transform="translate(-3.788 -6.819)" fill="#fff"/>
    <path id="Path_230" data-name="Path 230" d="M1563.963,803.49a.886.886,0,1,0,.886-.886A.886.886,0,0,0,1563.963,803.49Z" transform="translate(-9.85 -6.819)" fill="#fff"/>
  </g>
</svg>
