<?xml version="1.0" encoding="UTF-8"?>
<!DOCTYPE svg PUBLIC "-//W3C//DTD SVG 1.1//EN" "http://www.w3.org/Graphics/SVG/1.1/DTD/svg11.dtd">
<svg xmlns="http://www.w3.org/2000/svg" version="1.1" width="512px" height="512px" style="shape-rendering:geometricPrecision; text-rendering:geometricPrecision; image-rendering:optimizeQuality; fill-rule:evenodd; clip-rule:evenodd" xmlns:xlink="http://www.w3.org/1999/xlink">
<g><path style="opacity:0.953" fill="#000000" d="M 130.5,14.5 C 225.501,14.3333 320.501,14.5 415.5,15C 443.791,20.2909 460.291,37.1242 465,65.5C 465.667,191.833 465.667,318.167 465,444.5C 460.276,472.891 443.776,489.724 415.5,495C 320.5,495.667 225.5,495.667 130.5,495C 104.01,490.177 87.5096,474.677 81,448.5C 80.5001,436.838 80.3335,425.171 80.5,413.5C 70.1613,413.666 59.828,413.5 49.5,413C 41.8597,408.612 40.0263,402.445 44,394.5C 45.214,392.951 46.714,391.785 48.5,391C 59.1023,389.597 69.769,389.097 80.5,389.5C 80.5,364.833 80.5,340.167 80.5,315.5C 70.1613,315.666 59.828,315.5 49.5,315C 41.8692,310.656 40.0359,304.489 44,296.5C 45.214,294.951 46.714,293.785 48.5,293C 59.1615,292.5 69.8281,292.333 80.5,292.5C 80.5,267.833 80.5,243.167 80.5,218.5C 69.7779,218.875 59.1112,218.375 48.5,217C 41.1929,211.605 40.0263,205.105 45,197.5C 46.4194,196.54 47.9194,195.707 49.5,195C 59.828,194.5 70.1613,194.334 80.5,194.5C 80.5,169.833 80.5,145.167 80.5,120.5C 70.8276,120.666 61.1609,120.5 51.5,120C 42.4191,116.514 39.9191,110.347 44,101.5C 45.5429,99.6217 47.3762,98.1217 49.5,97C 59.828,96.5002 70.1613,96.3335 80.5,96.5C 80.3335,85.1618 80.5001,73.8284 81,62.5C 87.2112,35.7874 103.711,19.7874 130.5,14.5 Z M 131.5,38.5 C 225.501,38.3333 319.501,38.5 413.5,39C 428.221,42.0536 437.387,50.8869 441,65.5C 441.667,191.833 441.667,318.167 441,444.5C 437.5,458.667 428.667,467.5 414.5,471C 320.167,471.667 225.833,471.667 131.5,471C 117.775,467.609 108.942,459.109 105,445.5C 104.5,434.839 104.333,424.172 104.5,413.5C 114.506,413.666 124.506,413.5 134.5,413C 142.369,408.721 144.202,402.554 140,394.5C 138.786,392.951 137.286,391.785 135.5,391C 125.232,389.601 114.898,389.101 104.5,389.5C 104.5,364.833 104.5,340.167 104.5,315.5C 114.839,315.666 125.172,315.5 135.5,315C 142.533,310.227 144.033,304.06 140,296.5C 138.786,294.951 137.286,293.785 135.5,293C 125.172,292.5 114.839,292.334 104.5,292.5C 104.5,267.833 104.5,243.167 104.5,218.5C 114.889,218.87 125.223,218.37 135.5,217C 142.533,212.227 144.033,206.06 140,198.5C 138.421,196.959 136.587,195.792 134.5,195C 124.506,194.5 114.506,194.334 104.5,194.5C 104.5,169.833 104.5,145.167 104.5,120.5C 113.839,120.666 123.173,120.5 132.5,120C 141.063,116.986 143.897,111.153 141,102.5C 139.337,100.083 137.171,98.25 134.5,97C 124.506,96.5002 114.506,96.3335 104.5,96.5C 104.333,85.8281 104.5,75.1615 105,64.5C 109.096,50.9035 117.929,42.2368 131.5,38.5 Z M 265.5,164.5 C 283.112,162.552 295.612,169.552 303,185.5C 307.825,205.687 300.658,219.52 281.5,227C 255.735,229.902 242.235,218.402 241,192.5C 243.873,178.355 252.04,169.022 265.5,164.5 Z M 265.5,293.5 C 302.13,292.976 324.797,310.476 333.5,346C 293.168,346.5 252.835,346.667 212.5,346.5C 218.579,317.088 236.246,299.421 265.5,293.5 Z"/></g>
<g><path style="opacity:0.95" fill="#000000" d="M 264.5,140.5 C 294.111,138.64 314.611,151.307 326,178.5C 333.759,210.138 323.259,233.305 294.5,248C 266.815,257.206 243.982,250.372 226,227.5C 212.537,203.352 214.203,180.352 231,158.5C 240.466,149.186 251.632,143.186 264.5,140.5 Z M 265.5,164.5 C 252.04,169.022 243.873,178.355 241,192.5C 242.235,218.402 255.735,229.902 281.5,227C 300.658,219.52 307.825,205.687 303,185.5C 295.612,169.552 283.112,162.552 265.5,164.5 Z"/></g>
<g><path style="opacity:0.964" fill="#000000" d="M 264.5,269.5 C 299.828,268.078 326.995,282.078 346,311.5C 355.386,327.699 359.052,345.032 357,363.5C 355.749,366.381 353.583,368.214 350.5,369C 298.5,369.667 246.5,369.667 194.5,369C 189.106,365.711 186.773,360.878 187.5,354.5C 190.183,314 210.516,286.833 248.5,273C 253.954,271.745 259.287,270.578 264.5,269.5 Z M 265.5,293.5 C 236.246,299.421 218.579,317.088 212.5,346.5C 252.835,346.667 293.168,346.5 333.5,346C 324.797,310.476 302.13,292.976 265.5,293.5 Z"/></g>
</svg>
