<?xml version="1.0" standalone="no"?>
<!DOCTYPE svg PUBLIC "-//W3C//DTD SVG 20010904//EN"
 "http://www.w3.org/TR/2001/REC-SVG-20010904/DTD/svg10.dtd">
<svg version="1.0" xmlns="http://www.w3.org/2000/svg"
 width="32.000000pt" height="32.000000pt" viewBox="0 0 32.000000 32.000000"
 preserveAspectRatio="xMidYMid meet">

<g transform="translate(0.000000,32.000000) scale(0.100000,-0.100000)"
fill="#000000" stroke="none">
<path d="M53 313 c-10 -3 -13 -44 -13 -153 0 -126 2 -149 16 -154 20 -8 188
-8 208 0 13 5 16 26 16 124 l0 118 -40 36 c-38 34 -44 36 -108 35 -37 0 -73
-3 -79 -6z m127 -32 c0 -38 11 -51 46 -51 l34 0 0 -105 0 -105 -100 0 -100 0
0 140 0 140 60 0 c52 0 60 -2 60 -19z m60 -39 c-20 -7 -40 7 -40 29 l0 22 26
-24 c14 -13 20 -25 14 -27z"/>
<path d="M117 183 c24 -2 62 -2 85 0 24 2 5 4 -42 4 -47 0 -66 -2 -43 -4z"/>
<path d="M117 133 c24 -2 62 -2 85 0 24 2 5 4 -42 4 -47 0 -66 -2 -43 -4z"/>
<path d="M93 83 c9 -2 25 -2 35 0 9 3 1 5 -18 5 -19 0 -27 -2 -17 -5z"/>
</g>
</svg>
