<svg xmlns="http://www.w3.org/2000/svg" width="14.409" height="10.121" viewBox="0 0 14.409 10.121">
  <path id="Path_225" data-name="Path 225" d="M1366.559,380.573h-8.08m-5.323-3.018h1.886m-1.132,3.018h1.132m-.755,3.018h.755m3.366-2.649-.672,2.233c-.255.845-.382,1.267-.274,1.52a.753.753,0,0,0,.518.436c.267.064.662-.134,1.451-.528l5.9-2.951c.695-.347,1.042-.521,1.154-.756a.755.755,0,0,0,0-.647c-.112-.235-.459-.409-1.154-.756l-5.909-2.954c-.787-.394-1.181-.591-1.448-.527a.756.756,0,0,0-.518.435c-.108.252.018.674.27,1.517l.682,2.284a1.466,1.466,0,0,1,.065.26.736.736,0,0,1,0,.175A1.587,1.587,0,0,1,1358.408,380.942Z" transform="translate(-1352.656 -375.511)" fill="none" stroke="#0856a2" stroke-linecap="round" stroke-linejoin="round" stroke-width="1"/>
</svg>
