<svg xmlns="http://www.w3.org/2000/svg" width="15" height="17.487" viewBox="0 0 15 17.487">
  <g id="_7935ec95c421cee6d86eb22ecd114eed" data-name="7935ec95c421cee6d86eb22ecd114eed" transform="translate(-993.253 -423.004)">
    <path id="Path_1072" data-name="Path 1072" d="M1000.5,427.212a3.566,3.566,0,0,1,.874-2.768,4.129,4.129,0,0,1,2.668-1.44,3.832,3.832,0,0,1-.849,2.839A3.492,3.492,0,0,1,1000.5,427.212Zm5.489,3.684a3.738,3.738,0,0,1,1.753-2.025,4.451,4.451,0,0,0-3.353-1.773c-1.577,0-2.243.751-3.338.751-1.128,0-1.984-.751-3.349-.751a4.561,4.561,0,0,0-3.668,2.21,5.012,5.012,0,0,0-.681,1.868,10.03,10.03,0,0,0,1.687,6.917c.738,1.123,1.722,2.387,3.007,2.4,1.145.011,1.47-.732,3.02-.74s1.847.748,2.99.737c1.286-.011,2.324-1.41,3.062-2.532a12.71,12.71,0,0,0,1.133-2.123A3.887,3.887,0,0,1,1005.99,430.9Z" fill="#707070"/>
  </g>
</svg>
