<svg xmlns="http://www.w3.org/2000/svg" width="116.093" height="45.602" viewBox="0 0 116.093 45.602">
  <g id="Group_4074" data-name="Group 4074" transform="translate(-307.55 -101.385)">
    <path id="Path_1283" data-name="Path 1283" d="M410.882,114.639c.1-9.9-12.309-10.864-23.368-12.906-10.849-2-9.966,4.841-9.966,15.1,0,7.721,7.453,10.013,15.609,11.6V117.682a4.163,4.163,0,0,0-.314-1.815q-.3-.6-1.711-.7a10.966,10.966,0,0,0-.36,1.356q-.111.483-.278,1.075a5.218,5.218,0,0,1-.538,1.224,9.551,9.551,0,0,0-.463,1.224,14.186,14.186,0,0,0-.39,1.371q-.111.446-.277.964c-.112.345-.229.518-.353.518q-.222,0-.222-.778a3.207,3.207,0,0,1,.111-.741q.111-.444.223-1,.185-.779.351-1.611a5.61,5.61,0,0,0,.13-1.427,10.366,10.366,0,0,1,.222-2.13,6.4,6.4,0,0,1,.778-1.982q.63-1.185,1.372-2.316a14.255,14.255,0,0,0,1.259-2.389,9.992,9.992,0,0,0,.371-1.39q.147-.759.222-1.352.184.481.463,1.333a5.253,5.253,0,0,1,.278,1.63,4.966,4.966,0,0,1-.407,1.91,13.4,13.4,0,0,1-.926,1.834q-.519.852-.926,1.444-.135.186-.25.384a3.946,3.946,0,0,1,1.3.245l5.24-5.81a7.221,7.221,0,0,1,.87-.87,1.6,1.6,0,0,1,1.019-.464,1.173,1.173,0,0,1,.945.371,1.38,1.38,0,0,1,.314.926,1.41,1.41,0,0,1-.259.889.807.807,0,0,1-.667.334,1.488,1.488,0,0,1-.63-.185l-.666-.334-.832,2.075q-.462,1.149-.852,2.093t-.575,1.39a7.1,7.1,0,0,0-.889-.278,4.575,4.575,0,0,0-1.112-.13,3.348,3.348,0,0,0-1,.13,3.581,3.581,0,0,0-.4.153c.036.03.075.059.108.091a1.482,1.482,0,0,1,.181.215,11.778,11.778,0,0,1,2.372,1.5,10.313,10.313,0,0,1,2.083,2.231,3.8,3.8,0,0,1,.745,2.3c-.1,2.044-1.4,2.036-1.469,2.007a4.807,4.807,0,0,0,.064-.587q.015-.294.03-.63a6.179,6.179,0,0,0-.49-2.563,9.288,9.288,0,0,0-1.512-2.538,5.961,5.961,0,0,0-1.651-1.407l0,.01a5.167,5.167,0,0,1,1.461,1.224,8.79,8.79,0,0,1,1.352,2.168,5.717,5.717,0,0,1,.518,2.3,6.859,6.859,0,0,1-.3,2.149,1.1,1.1,0,0,1-1.073.88q-.445,0-.779-.648a8.054,8.054,0,0,1-.593-1.649q-.195-.747-.335-1.546V128.6c2.4.452,4.848.858,7.164,1.337C412.632,132.3,410.807,122.382,410.882,114.639Z" fill="#fff"/>
    <path id="Path_1284" data-name="Path 1284" d="M393.156,142.578a1.9,1.9,0,0,0-1.612.76,2.485,2.485,0,0,0-.574,1.5,2.948,2.948,0,0,0,.927,2.149h.453a2.1,2.1,0,0,1-.713-1.6,1.942,1.942,0,1,1,3.877-.231,1.779,1.779,0,0,1,0,.231,2.1,2.1,0,0,1-.713,1.6h.5a2.949,2.949,0,0,0,.926-2.149,2.541,2.541,0,0,0-.556-1.5,1.89,1.89,0,0,0-1.63-.76V128.6l-.889-.169Z" fill="#fff"/>
    <g id="Group_4073" data-name="Group 4073">
      <path id="Path_1285" data-name="Path 1285" d="M322.96,128.656h4.065a24.34,24.34,0,0,0-.682,7.845h7.927c-.019-2.635.159-5.25-.69-7.84h3.847a74.923,74.923,0,0,0-.013,18.076h-3.767a17.327,17.327,0,0,0,.409-2.166c.113-1.787.147-3.579.217-5.368.014-.372-.176-.464-.511-.463-2.3.007-4.6.012-6.9,0-.436,0-.543.177-.539.578a24.007,24.007,0,0,0,.637,7.181.872.872,0,0,1-.012.239h-3.971c.985-2.991.7-6.02.7-9.02S323.978,131.682,322.96,128.656Z" fill="#fff" fill-rule="evenodd"/>
      <path id="Path_1286" data-name="Path 1286" d="M352.825,128.548c1.876.083,3.841.02,5.76.294a4.358,4.358,0,0,1,3.915,4.505,3.917,3.917,0,0,1-1.133,2.6c-.36.384-.772.718-1.214,1.123.36.259.73.513,1.089.784a4.611,4.611,0,0,1,1.959,5.182,4.811,4.811,0,0,1-2.818,3.033c-2.471,1.157-5.089.579-7.544.723A69.863,69.863,0,0,0,352.825,128.548Zm3.232,8.959v7.766c.609-.086,1.159-.125,1.689-.245a3.353,3.353,0,0,0,2.814-3.554,4.847,4.847,0,0,0-4.5-3.967Zm-.017-.617a3.847,3.847,0,0,0,3.686-4.041,3.321,3.321,0,0,0-3.686-2.572Z" fill="#fff" fill-rule="evenodd"/>
      <path id="Path_1287" data-name="Path 1287" d="M369.115,138.384V144.6c0,.47.325.422.624.41a20.026,20.026,0,0,0,5.962-.979c.232-.082.473-.134.909-.256-.448,1.042-.819,1.938-1.229,2.815-.053.114-.309.188-.471.188q-4.449.009-8.9-.01c-.043,0-.085-.031-.061-.022a69.054,69.054,0,0,0,0-18.07h9.578c-.408.9-.767,1.736-1.185,2.544-.053.1-.426.092-.636.049-1.323-.26-2.639-.549-3.961-.814-.461-.092-.656.1-.648.6q.038,2.484,0,4.967c-.008.5.185.624.647.618,1.653-.02,3.3-.008,5.176-.008-.543.912-.986,1.7-1.484,2.442-.068.1-.419.052-.629.014C371.623,138.871,370.438,138.638,369.115,138.384Z" fill="#fff" fill-rule="evenodd"/>
      <path id="Path_1288" data-name="Path 1288" d="M340.6,128.654h9.579c-.4.89-.752,1.728-1.171,2.53-.06.115-.459.114-.682.071-1.323-.253-2.64-.539-3.962-.8-.472-.093-.642.117-.634.608.026,1.609.032,3.219,0,4.828-.012.561.137.768.726.751,1.378-.039,2.759-.012,4.138-.012h.975c-.56.927-1.022,1.724-1.53,2.49-.054.082-.378.007-.571-.028-1.205-.223-2.409-.455-3.726-.705v4.248c0,.6.024,1.2-.007,1.793-.024.459.15.605.6.588a20.9,20.9,0,0,0,5.9-.945c.238-.081.481-.147.724-.216.037-.01.085.022.238.068-.391.9-.762,1.8-1.175,2.674-.052.112-.311.179-.474.18q-4.416.012-8.83,0a.2.2,0,0,1-.111-.026A71.545,71.545,0,0,0,340.6,128.654Z" fill="#fff" fill-rule="evenodd"/>
      <path id="Path_1289" data-name="Path 1289" d="M386.682,132.034a5.541,5.541,0,0,0-3.069-1.39,2.88,2.88,0,0,0-2.98,1.54,2.606,2.606,0,0,0,.908,3.141,25.957,25.957,0,0,0,2.334,1.586c.632.418,1.276.818,1.9,1.241a4.745,4.745,0,0,1-.952,8.12,8.584,8.584,0,0,1-6.587.116.726.726,0,0,1-.383-.539c-.037-1.031-.018-2.064-.018-3.3.3.288.49.454.665.636a4.477,4.477,0,0,0,3.537,1.714,2.733,2.733,0,0,0,2.551-1.779,2.348,2.348,0,0,0-.906-2.868c-.908-.7-1.917-1.261-2.876-1.893a14.6,14.6,0,0,1-1.24-.87,4.66,4.66,0,0,1-1.683-5,5.1,5.1,0,0,1,3.864-3.84,7.009,7.009,0,0,1,4.456.372.648.648,0,0,1,.481.721C386.66,130.445,386.682,131.152,386.682,132.034Z" fill="#fff" fill-rule="evenodd"/>
      <path id="Path_1290" data-name="Path 1290" d="M316.646,146.743h-3.925a31.456,31.456,0,0,0,.5-3.694c.078-4.067.059-8.136.074-12.205a2.049,2.049,0,0,0-.1-.343c-.925.117-1.88.184-2.81.372s-1.805.492-2.831.781c.285-.979.547-1.917.842-2.84.03-.094.257-.176.392-.176,4.342-.009,8.685-.007,13.159-.007-.392.917-.722,1.762-1.122,2.57-.056.114-.481.15-.677.074a10.551,10.551,0,0,0-4.2-.7v.839c0,3.036.009,6.069,0,9.1A18.542,18.542,0,0,0,316.646,146.743Z" fill="#fff" fill-rule="evenodd"/>
      <g id="Group_4072" data-name="Group 4072">
        <path id="Path_1291" data-name="Path 1291" d="M409.929,137.462a8.971,8.971,0,0,1,5.233.773,4.293,4.293,0,0,1,2.188,4.558,4.589,4.589,0,0,1-3.875,3.912,7.1,7.1,0,0,1-1.274.163c-.748.026-1.5.007-2.214.007A34.15,34.15,0,0,0,409.929,137.462Zm1.76.871a4.39,4.39,0,0,0-.049.472c0,2.168-.017,4.334.01,6.5.011.806-.031.689.729.6a3.638,3.638,0,0,0,3.324-4.7A3.917,3.917,0,0,0,411.689,138.333Z" fill="#fff" fill-rule="evenodd"/>
        <path id="Path_1292" data-name="Path 1292" d="M401.758,146.861h-2.129c1.9-3.057,3.281-6.376,5.008-9.546,1.643,3.161,2.847,6.5,4.707,9.532H407.2a6.592,6.592,0,0,0-.808-2.658.363.363,0,0,0-.4-.265c-.989.013-1.978,0-2.967.012-.111,0-.288.058-.321.137-.316.754-.614,1.518-.9,2.281A2.061,2.061,0,0,0,401.758,146.861Zm4.024-4.029-1.2-2.748-1.292,2.748Z" fill="#fff" fill-rule="evenodd"/>
        <path id="Path_1293" data-name="Path 1293" d="M423.139,139.238a2.87,2.87,0,0,0-1.6-.725,1.5,1.5,0,0,0-1.527.768,1.322,1.322,0,0,0,.419,1.636,12.25,12.25,0,0,0,1.232.85c.327.218.661.425.987.643a2.449,2.449,0,0,1-.477,4.2,4.468,4.468,0,0,1-3.414.066.312.312,0,0,1-.187-.214,10.618,10.618,0,0,1,.07-1.719c.15.16.294.328.45.479a1.979,1.979,0,0,0,2.117.588,1.286,1.286,0,0,0,.465-2.23,16.117,16.117,0,0,0-1.567-1.059,7.619,7.619,0,0,1-.671-.471,2.5,2.5,0,0,1-.8-2.8,2.733,2.733,0,0,1,2.452-1.839,9.364,9.364,0,0,1,1.683.232.415.415,0,0,1,.377.447.459.459,0,0,1-.011.063C423.116,138.483,423.139,138.815,423.139,139.238Z" fill="#fff" fill-rule="evenodd"/>
      </g>
    </g>
  </g>
</svg>
