<svg xmlns="http://www.w3.org/2000/svg" width="16.608" height="16.608" viewBox="0 0 16.608 16.608">
  <g id="smartphone-mobilephone-application-megaphone-advertising" transform="translate(-2 -2)">
    <path id="Path_1183" data-name="Path 1183" d="M17.778,4.768H12.519V3.384A1.384,1.384,0,0,0,11.135,2H3.384A1.384,1.384,0,0,0,2,3.384v13.84a1.384,1.384,0,0,0,1.384,1.384h7.751a1.384,1.384,0,0,0,1.384-1.384v-.83h5.259a.833.833,0,0,0,.83-.83V5.6a.833.833,0,0,0-.83-.83ZM11.965,17.224a.833.833,0,0,1-.83.83H3.384a.833.833,0,0,1-.83-.83V3.384a.833.833,0,0,1,.83-.83h7.751a.833.833,0,0,1,.83.83V4.768h-.554v-.83a.833.833,0,0,0-.83-.83H9.15a.841.841,0,0,0-.587.241l-.23.23a.282.282,0,0,1-.2.083H6.382a.279.279,0,0,1-.194-.08l-.235-.235a.84.84,0,0,0-.584-.238H3.938a.833.833,0,0,0-.83.83V16.671a.833.833,0,0,0,.83.83h6.643a.833.833,0,0,0,.83-.83v-.277h.554ZM4.314,10.8l1.561,1.3v3.468a.833.833,0,0,0,.83.83h4.152v.277a.277.277,0,0,1-.277.277H3.938a.277.277,0,0,1-.277-.277V3.938a.277.277,0,0,1,.277-.277H5.369a.279.279,0,0,1,.194.08l.235.235a.84.84,0,0,0,.584.238H8.137a.841.841,0,0,0,.587-.241l.23-.23a.282.282,0,0,1,.2-.083h1.431a.277.277,0,0,1,.277.277v.83H6.706a.833.833,0,0,0-.83.83V9.067l-1.561,1.3a.275.275,0,0,0-.1.213.279.279,0,0,0,.1.213Zm13.741,4.767a.277.277,0,0,1-.277.277H6.706a.277.277,0,0,1-.277-.277v-3.6a.275.275,0,0,0-.1-.213L4.923,10.584,6.329,9.41a.275.275,0,0,0,.1-.213V5.6a.277.277,0,0,1,.277-.277H17.778a.277.277,0,0,1,.277.277Z" transform="translate(0 0)" fill="#707070"/>
    <path id="Path_1184" data-name="Path 1184" d="M30.055,22.272l-.85-1.473a1.1,1.1,0,0,0-1.066-1.849l-.853-1.473a.277.277,0,0,0-.376-.1l-.961.554a.332.332,0,0,0-.08.072l-2.151,2.815-1.152.664a1.662,1.662,0,0,0,1.661,2.879l.969,1.677a.831.831,0,1,0,1.439-.83l-.9-1.558,3.156-.41a.318.318,0,0,0,.1-.033l.961-.554a.27.27,0,0,0,.127-.169.267.267,0,0,0-.028-.21Zm-1.478-2.793a.554.554,0,0,1,.39.678.542.542,0,0,1-.055.13l-.479-.825A.512.512,0,0,1,28.577,19.479Zm-4.625,4.4a1.107,1.107,0,1,1-1.107-1.915l.961-.554,1.107,1.915Zm2.206,1.605a.278.278,0,0,1-.482.277l-.969-1.677.482-.277Zm-.722-2.356-1.2-2.076,1.821-2.383,2.353,4.075Zm3.524-.543-2.491-4.313L26.946,18l2.491,4.313Z" transform="translate(-14.273 -11.093)" fill="#707070"/>
    <path id="Path_1185" data-name="Path 1185" d="M48.125,15.382a.277.277,0,0,0-.144.535,2.771,2.771,0,0,1,1.958,3.392.277.277,0,1,0,.535.142,3.324,3.324,0,0,0-2.349-4.069Z" transform="translate(-33.105 -9.671)" fill="#707070"/>
    <path id="Path_1186" data-name="Path 1186" d="M47.089,19.247a.277.277,0,0,0-.143.535,1.661,1.661,0,0,1,1.174,2.034.277.277,0,0,0,.2.339.28.28,0,0,0,.072.009.277.277,0,0,0,.267-.205A2.214,2.214,0,0,0,47.089,19.247Z" transform="translate(-32.356 -12.466)" fill="#707070"/>
    <path id="Path_1187" data-name="Path 1187" d="M10.83,10h-.554a.277.277,0,0,0-.277.277v.554a.277.277,0,1,0,.554,0v-.277h.277a.277.277,0,1,0,0-.554Z" transform="translate(-5.786 -5.786)" fill="#707070"/>
    <path id="Path_1188" data-name="Path 1188" d="M10,50.841a.277.277,0,0,0,.277.277h.554a.277.277,0,0,0,0-.554h-.277v-.273a.277.277,0,0,0-.554,0Z" transform="translate(-5.786 -34.724)" fill="#707070"/>
    <path id="Path_1189" data-name="Path 1189" d="M19.277,5.554h.554a.277.277,0,1,0,0-.554h-.554a.277.277,0,0,0,0,.554Z" transform="translate(-12.294 -2.17)" fill="#707070"/>
  </g>
</svg>
