<svg xmlns="http://www.w3.org/2000/svg" width="15" height="9.606" viewBox="0 0 15 9.606">
  <g id="Group_86" data-name="Group 86" transform="translate(-303 -228.983)">
    <path id="Path_220" data-name="Path 220" d="M316.6,228.983H304.4a1.416,1.416,0,0,0-1.4,1.4v6.8a1.416,1.416,0,0,0,1.4,1.4H316.6a1.416,1.416,0,0,0,1.4-1.4v-6.766A1.423,1.423,0,0,0,316.6,228.983Zm-10.564,8.2a1.615,1.615,0,0,0-1.628-1.628v-3.51a1.614,1.614,0,0,0,1.628-1.628h8.936a1.614,1.614,0,0,0,1.628,1.628v3.51a1.614,1.614,0,0,0-1.628,1.628Z" fill="#707070"/>
    <circle id="Ellipse_11" data-name="Ellipse 11" cx="2.33" cy="2.33" r="2.33" transform="translate(308.17 231.345)" fill="#707070"/>
  </g>
</svg>
