<svg xmlns="http://www.w3.org/2000/svg" width="15" height="16.666" viewBox="0 0 15 16.666">
  <g id="Group_87" data-name="Group 87" transform="translate(-333.5 -422.667)">
    <path id="Path_223" data-name="Path 223" d="M333.5,423.5h15v15h-15Z" fill="none"/>
    <path id="Path_224" data-name="Path 224" d="M347.667,439.333H336a2.5,2.5,0,0,1-2.5-2.5V425.167a2.5,2.5,0,0,1,2.5-2.5h11.667a.833.833,0,0,1,.833.833v15A.833.833,0,0,1,347.667,439.333Zm-.834-1.666V436H336a.833.833,0,0,0,0,1.667Zm-11.666-3.192a2.5,2.5,0,0,1,.833-.142h10.833v-10H336a.833.833,0,0,0-.833.834ZM341,429.333a1.667,1.667,0,1,1,1.667-1.666A1.667,1.667,0,0,1,341,429.333Zm-2.5,3.334a2.5,2.5,0,0,1,5,0Z" fill="#707070"/>
  </g>
</svg>


