<svg xmlns="http://www.w3.org/2000/svg" width="16.638" height="16.638" viewBox="0 0 16.638 16.638">
  <g id="online-advertising" transform="translate(0 -0.501)">
    <path id="Path_1194" data-name="Path 1194" d="M52.762,45.15h0a.325.325,0,1,0-.328-.325.324.324,0,0,0,.328.325Zm0,0" transform="translate(-50.733 -42.569)" fill="#707070"/>
    <path id="Path_1195" data-name="Path 1195" d="M98.263,45.15h0a.325.325,0,1,0-.328-.325A.324.324,0,0,0,98.266,45.15Zm0,0" transform="translate(-94.755 -42.569)" fill="#707070"/>
    <path id="Path_1196" data-name="Path 1196" d="M143.766,45.15h0a.325.325,0,1,0-.328-.325A.324.324,0,0,0,143.769,45.15Zm0,0" transform="translate(-138.779 -42.569)" fill="#707070"/>
    <path id="Path_1197" data-name="Path 1197" d="M222.071,45.15H226.6a.325.325,0,1,0,0-.65h-4.525a.325.325,0,1,0,0,.65Zm0,0" transform="translate(-214.54 -42.569)" fill="#707070"/>
    <path id="Path_1198" data-name="Path 1198" d="M414.309,268.492a.325.325,0,1,0,.23.1A.327.327,0,0,0,414.309,268.492Zm0,0" transform="translate(-400.531 -259.282)" fill="#707070"/>
    <path id="Path_1199" data-name="Path 1199" d="M192.922,176.492h-.4a.325.325,0,0,0-.325.325v2.34a.325.325,0,0,0,.325.325h.4a1.495,1.495,0,0,0,0-2.99Zm0,2.34h-.08v-1.69h.08a.845.845,0,0,1,0,1.69Zm0,0" transform="translate(-185.946 -170.272)" fill="#707070"/>
    <path id="Path_1200" data-name="Path 1200" d="M104.762,176.714a.325.325,0,0,0-.616,0l-.787,2.34a.325.325,0,1,0,.616.207l.024-.071h.911l.024.071a.325.325,0,1,0,.616-.207Zm-.545,1.826.237-.7.237.7Zm0,0" transform="translate(-99.983 -170.273)" fill="#707070"/>
    <path id="Path_1201" data-name="Path 1201" d="M16.543,14.383l-2.21-2.21.779-.779a.325.325,0,0,0-.14-.542L10.269,9.5V5.245a.325.325,0,0,0-.325-.325H1.885a.325.325,0,0,0-.325.325v4.939a.325.325,0,0,0,.325.325H8.923l.562,1.95H.975a.325.325,0,0,1-.325-.325V4.01h12.8V8.235a.325.325,0,0,0,.65,0V1.476A.976.976,0,0,0,13.128.5H.975A.976.976,0,0,0,0,1.476V12.134a.976.976,0,0,0,.975.975h8.7l.681,2.364a.325.325,0,0,0,.542.14l.779-.779,2.21,2.21a.325.325,0,0,0,.46,0l2.2-2.2a.325.325,0,0,0,0-.46ZM.975,1.151H13.128a.325.325,0,0,1,.325.325V3.36H.65V1.476A.325.325,0,0,1,.975,1.151ZM2.21,9.859V5.57H9.619V9.311l-.57-.164a.325.325,0,0,0-.4.4l.089.31Zm11.9,6.495L11.9,14.145a.325.325,0,0,0-.46,0l-.619.619L9.434,9.934l4.829,1.391-.619.619a.325.325,0,0,0,0,.46l2.21,2.209Zm0,0" fill="#707070"/>
    <path id="Path_1202" data-name="Path 1202" d="M51.972,329.138a.325.325,0,1,0,0-.65H49.751a.325.325,0,1,0,0,.65Zm0,0" transform="translate(-47.82 -317.329)" fill="#707070"/>
    <path id="Path_1203" data-name="Path 1203" d="M157.82,329.043a.325.325,0,1,0-.23.1A.328.328,0,0,0,157.82,329.043Zm0,0" transform="translate(-152.155 -317.329)" fill="#707070"/>
  </g>
</svg>
