<svg xmlns="http://www.w3.org/2000/svg" width="15" height="13.75" viewBox="0 0 15 13.75">
  <g id="Group_85" data-name="Group 85" transform="translate(-333.829 -373.936)">
    <path id="Path_217" data-name="Path 217" d="M336.954,385.186h3.75v1.25h-2.5a.625.625,0,0,0,0,1.25h6.25a.625.625,0,0,0,0-1.25h-2.5v-1.25h3.75a3.131,3.131,0,0,0,3.063-2.5H333.892A3.131,3.131,0,0,0,336.954,385.186Z" fill="#707070"/>
    <path id="Path_218" data-name="Path 218" d="M345.7,373.936h-8.75a3.129,3.129,0,0,0-3.125,3.125v4.375h15v-4.375A3.129,3.129,0,0,0,345.7,373.936Z" fill="#707070"/>
  </g>
</svg>
