<svg xmlns="http://www.w3.org/2000/svg" width="15" height="15.041" viewBox="0 0 15 15.041">
  <g id="Group_59" data-name="Group 59" transform="translate(-304.294 -338.649)">
    <rect id="Rectangle_81" data-name="Rectangle 81" width="1.875" height="5.625" transform="translate(308.669 344.315)" fill="#707070"/>
    <rect id="Rectangle_82" data-name="Rectangle 82" width="1.875" height="3.75" transform="translate(313.044 346.19)" fill="#707070"/>
    <rect id="Rectangle_83" data-name="Rectangle 83" width="1.875" height="6.25" transform="translate(317.419 343.69)" fill="#707070"/>
    <path id="Path_147" data-name="Path 147" d="M314.374,343.71a1.413,1.413,0,0,1-1-.414l-2.6-2.6-1.3,1.3-1.329-1.329,1.622-1.622a1.451,1.451,0,0,1,2.005,0l2.6,2.6,2.694-2.7,1.326,1.327-3.019,3.018A1.409,1.409,0,0,1,314.374,343.71Z" fill="#707070"/>
    <path id="Path_148" data-name="Path 148" d="M319.294,353.69H306.481a2.188,2.188,0,0,1-2.187-2.188V338.69h1.875V351.5a.312.312,0,0,0,.312.313h12.813Z" fill="#707070"/>
  </g>
</svg>
