<svg xmlns="http://www.w3.org/2000/svg" width="15" height="15" viewBox="0 0 15 15">
  <path id="Path_214" data-name="Path 214" d="M308.357,188a1.072,1.072,0,0,1,1.072,1.072v4.286a1.072,1.072,0,0,1-1.072,1.071h-4.286A1.072,1.072,0,0,1,303,193.358v-4.286A1.072,1.072,0,0,1,304.071,188Zm8.572,4.286a1.072,1.072,0,0,1,0,2.143h-4.286a1.072,1.072,0,1,1,0-2.143Zm-9.643-2.143h-2.143v2.143h2.143ZM316.929,188a1.072,1.072,0,0,1,0,2.143h-4.286a1.072,1.072,0,1,1,0-2.143Zm-8.572-8.571a1.072,1.072,0,0,1,1.072,1.071v4.286a1.072,1.072,0,0,1-1.072,1.072h-4.286A1.072,1.072,0,0,1,303,184.786V180.5a1.072,1.072,0,0,1,1.071-1.071Zm8.572,4.286a1.071,1.071,0,0,1,.125,2.135l-.125.008h-4.286a1.072,1.072,0,0,1-.125-2.136l.125-.007Zm-9.643-2.143h-2.143v2.143h2.143Zm9.643-2.143a1.072,1.072,0,0,1,0,2.143h-4.286a1.072,1.072,0,1,1,0-2.143Z" transform="translate(-303 -179.429)" fill="#707070" fill-rule="evenodd"/>
</svg>
