<?xml version="1.0" encoding="UTF-8"?>
<!DOCTYPE svg PUBLIC "-//W3C//DTD SVG 1.1//EN" "http://www.w3.org/Graphics/SVG/1.1/DTD/svg11.dtd">
<svg xmlns="http://www.w3.org/2000/svg" version="1.1" width="32px" height="32px" style="shape-rendering:geometricPrecision; text-rendering:geometricPrecision; image-rendering:optimizeQuality; fill-rule:evenodd; clip-rule:evenodd" xmlns:xlink="http://www.w3.org/1999/xlink">
<g><path style="opacity:0.704" fill="#141614" d="M 7.5,-0.5 C 8.5,-0.5 9.5,-0.5 10.5,-0.5C 14.9531,0.174014 19.4531,1.17401 24,2.5C 26.4621,1.84054 28.9621,1.5072 31.5,1.5C 31.5,4.83333 31.5,8.16667 31.5,11.5C 24.4249,11.3671 18.7582,14.2004 14.5,20C 17,20.8854 19.3333,22.0521 21.5,23.5C 23.7466,22.6258 26.0799,22.2924 28.5,22.5C 28.7394,24.4672 28.4061,26.3005 27.5,28C 24.2823,28.9003 21.2823,30.067 18.5,31.5C 16.1667,31.5 13.8333,31.5 11.5,31.5C 10.376,30.1914 8.876,29.5247 7,29.5C 4.53785,30.1595 2.03785,30.4928 -0.5,30.5C -0.5,27.1667 -0.5,23.8333 -0.5,20.5C 3.79445,20.8184 7.79445,19.9851 11.5,18C 7.83333,14.3333 4.16667,10.6667 0.5,7C 3.03856,4.63029 5.3719,2.13029 7.5,-0.5 Z"/></g>
<g><path style="opacity:1" fill="#0c4f42" d="M 10.5,3.5 C 9.5,4.83333 8.5,4.83333 7.5,3.5C 7.53459,2.59627 8.03459,1.9296 9,1.5C 10.0299,1.83611 10.5299,2.50278 10.5,3.5 Z"/></g>
<g><path style="opacity:1" fill="#d7b48a" d="M 14.5,1.5 C 17.8333,2.5 21.1667,3.5 24.5,4.5C 25.921,10.1132 23.921,12.2799 18.5,11C 16.0742,9.85533 13.7409,8.52199 11.5,7C 14.2004,6.74677 16.867,6.74677 19.5,7C 16.9178,6.10418 14.5845,4.77085 12.5,3C 13.4158,2.72158 14.0825,2.22158 14.5,1.5 Z"/></g>
<g><path style="opacity:1" fill="#2a6a9c" d="M 27.5,2.5 C 28.5,2.5 29.5,2.5 30.5,2.5C 30.5,4.83333 30.5,7.16667 30.5,9.5C 29.5,9.5 28.5,9.5 27.5,9.5C 27.5,7.16667 27.5,4.83333 27.5,2.5 Z"/></g>
<g><path style="opacity:1" fill="#e1ba5f" d="M 9.5,7.5 C 11.3407,8.40226 12.674,9.73559 13.5,11.5C 12.1667,11.5 10.8333,11.5 9.5,11.5C 9.5,10.1667 9.5,8.83333 9.5,7.5 Z"/></g>
<g><path style="opacity:1" fill="#2a997e" d="M 7.5,3.5 C 8.5,4.83333 9.5,4.83333 10.5,3.5C 11.0431,3.55999 11.3764,3.89333 11.5,4.5C 10.8075,5.51776 10.1408,6.51776 9.5,7.5C 9.5,8.83333 9.5,10.1667 9.5,11.5C 10.8333,11.5 12.1667,11.5 13.5,11.5C 16.9007,10.2266 18.234,11.56 17.5,15.5C 10.8435,16.3357 6.84346,13.5023 5.5,7C 5.60826,5.31887 6.27493,4.1522 7.5,3.5 Z"/></g>
<g><path style="opacity:1" fill="#286697" d="M 0.5,22.5 C 1.5,22.5 2.5,22.5 3.5,22.5C 3.5,24.8333 3.5,27.1667 3.5,29.5C 2.5,29.5 1.5,29.5 0.5,29.5C 0.5,27.1667 0.5,24.8333 0.5,22.5 Z"/></g>
<g><path style="opacity:1" fill="#d8b48a" d="M 18.5,23.5 C 18.38,24.5862 17.7133,25.2528 16.5,25.5C 14.8453,24.772 13.1786,24.6053 11.5,25C 13.5883,26.0296 15.755,26.8629 18,27.5C 19.301,27.3613 20.1344,26.6946 20.5,25.5C 22.9007,23.8271 25.2341,23.6605 27.5,25C 23.5337,27.2139 19.367,29.0473 15,30.5C 12.2953,29.0609 9.46201,28.0609 6.5,27.5C 5.07898,21.8868 7.07898,19.7201 12.5,21C 14.2872,22.3187 16.2872,23.152 18.5,23.5 Z"/></g>
<g><path style="opacity:1" fill="#4e4133" d="M 18.5,23.5 C 19.1667,24.1667 19.8333,24.8333 20.5,25.5C 20.1344,26.6946 19.301,27.3613 18,27.5C 15.755,26.8629 13.5883,26.0296 11.5,25C 13.1786,24.6053 14.8453,24.772 16.5,25.5C 17.7133,25.2528 18.38,24.5862 18.5,23.5 Z"/></g>
</svg>
