<?xml version="1.0" encoding="UTF-8"?>
<!DOCTYPE svg PUBLIC "-//W3C//DTD SVG 1.1//EN" "http://www.w3.org/Graphics/SVG/1.1/DTD/svg11.dtd">
<svg xmlns="http://www.w3.org/2000/svg" version="1.1" width="512px" height="512px" style="shape-rendering:geometricPrecision; text-rendering:geometricPrecision; image-rendering:optimizeQuality; fill-rule:evenodd; clip-rule:evenodd" xmlns:xlink="http://www.w3.org/1999/xlink">
<g><path style="opacity:0.924" fill="#000000" d="M 397.5,34.5 C 402.635,33.4262 406.468,35.0928 409,39.5C 411.588,51.1074 413.921,62.7741 416,74.5C 417.597,85.572 413.097,89.4053 402.5,86C 401.107,84.8289 400.273,83.3289 400,81.5C 398.893,76.5232 397.893,71.5232 397,66.5C 314.866,197.618 200.866,289.284 55,341.5C 49.5278,341.199 46.6944,338.366 46.5,333C 46.4076,330.186 47.4076,327.853 49.5,326C 191.627,273.956 302.96,183.956 383.5,56C 377.436,56.065 371.436,56.8984 365.5,58.5C 357.029,56.2581 354.863,51.2581 359,43.5C 371.802,40.042 384.636,37.042 397.5,34.5 Z"/></g>
<g><path style="opacity:0.99" fill="#000000" d="M 403.5,107.5 C 422.17,107.333 440.836,107.5 459.5,108C 462.937,109.105 465.437,111.272 467,114.5C 467.667,232.833 467.667,351.167 467,469.5C 465.332,473.165 462.499,475.332 458.5,476C 440.5,476.667 422.5,476.667 404.5,476C 400.501,475.332 397.668,473.165 396,469.5C 395.333,351.167 395.333,232.833 396,114.5C 397.742,111.254 400.242,108.921 403.5,107.5 Z M 411.5,124.5 C 424.833,124.5 438.167,124.5 451.5,124.5C 451.5,236.167 451.5,347.833 451.5,459.5C 438.167,459.5 424.833,459.5 411.5,459.5C 411.5,347.833 411.5,236.167 411.5,124.5 Z"/></g>
<g><path style="opacity:0.987" fill="#000000" d="M 315.5,203.5 C 334.17,203.333 352.836,203.5 371.5,204C 374.937,205.105 377.437,207.272 379,210.5C 379.667,296.833 379.667,383.167 379,469.5C 377.332,473.165 374.499,475.332 370.5,476C 352.5,476.667 334.5,476.667 316.5,476C 312.501,475.332 309.668,473.165 308,469.5C 307.333,383.167 307.333,296.833 308,210.5C 309.742,207.254 312.242,204.921 315.5,203.5 Z M 323.5,220.5 C 336.833,220.5 350.167,220.5 363.5,220.5C 363.5,300.167 363.5,379.833 363.5,459.5C 350.167,459.5 336.833,459.5 323.5,459.5C 323.5,379.833 323.5,300.167 323.5,220.5 Z"/></g>
<g><path style="opacity:0.982" fill="#000000" d="M 227.5,283.5 C 246.17,283.333 264.836,283.5 283.5,284C 286.937,285.105 289.437,287.272 291,290.5C 291.667,350.167 291.667,409.833 291,469.5C 289.332,473.165 286.499,475.332 282.5,476C 264.5,476.667 246.5,476.667 228.5,476C 224.501,475.332 221.668,473.165 220,469.5C 219.333,409.833 219.333,350.167 220,290.5C 221.742,287.254 224.242,284.921 227.5,283.5 Z M 235.5,300.5 C 248.833,300.5 262.167,300.5 275.5,300.5C 275.5,353.5 275.5,406.5 275.5,459.5C 262.167,459.5 248.833,459.5 235.5,459.5C 235.5,406.5 235.5,353.5 235.5,300.5 Z"/></g>
<g><path style="opacity:0.977" fill="#000000" d="M 139.5,331.5 C 158.17,331.333 176.836,331.5 195.5,332C 198.937,333.105 201.437,335.272 203,338.5C 203.667,382.167 203.667,425.833 203,469.5C 201.833,472 200,473.833 197.5,475C 178.565,476.628 159.565,476.962 140.5,476C 136.501,475.332 133.668,473.165 132,469.5C 131.333,425.833 131.333,382.167 132,338.5C 133.742,335.254 136.242,332.921 139.5,331.5 Z M 147.5,348.5 C 160.833,348.5 174.167,348.5 187.5,348.5C 187.5,385.5 187.5,422.5 187.5,459.5C 174.167,459.5 160.833,459.5 147.5,459.5C 147.5,422.5 147.5,385.5 147.5,348.5 Z"/></g>
<g><path style="opacity:0.969" fill="#000000" d="M 51.5,379.5 C 70.1696,379.333 88.8363,379.5 107.5,380C 110.102,380.883 112.269,382.383 114,384.5C 115.65,412.747 115.983,441.08 115,469.5C 113.332,473.165 110.499,475.332 106.5,476C 88.5,476.667 70.5,476.667 52.5,476C 48.5013,475.332 45.668,473.165 44,469.5C 43.3333,441.833 43.3333,414.167 44,386.5C 45.7424,383.254 48.2424,380.921 51.5,379.5 Z M 59.5,396.5 C 72.8333,396.5 86.1667,396.5 99.5,396.5C 99.5,417.5 99.5,438.5 99.5,459.5C 86.1667,459.5 72.8333,459.5 59.5,459.5C 59.5,438.5 59.5,417.5 59.5,396.5 Z"/></g>
</svg>
